<?xml version="1.0" standalone="no"?>
<!DOCTYPE svg PUBLIC "-//W3C//DTD SVG 20010904//EN"
 "http://www.w3.org/TR/2001/REC-SVG-20010904/DTD/svg10.dtd">
<svg version="1.0" xmlns="http://www.w3.org/2000/svg"
 width="559.000000pt" height="897.000000pt" viewBox="0 0 559.000000 897.000000"
 preserveAspectRatio="xMidYMid meet">

<g transform="translate(0.000000,897.000000) scale(0.100000,-0.100000)"
fill="#000000" stroke="none">
<path d="M1450 7461 c0 -15 -38 -38 -167 -101 -93 -45 -169 -83 -171 -85 -2
-2 2 -12 9 -23 11 -18 -66 -439 -531 -2886 -299 -1576 -541 -2868 -539 -2871
3 -2 166 -5 363 -5 l358 -1 137 109 c126 101 137 113 134 139 -3 15 126 716
286 1557 401 2106 475 2534 562 3239 7 60 16 97 23 97 7 0 32 -82 60 -192 92
-363 225 -777 382 -1187 24 -64 353 -887 731 -1829 l687 -1712 353 0 c226 0
353 4 353 10 0 10 1087 5700 1097 5738 l5 22 -341 0 c-190 0 -341 -4 -341 -9
0 -5 -131 -697 -290 -1537 -397 -2086 -462 -2480 -510 -3099 -14 -180 -19
-223 -29 -229 -4 -3 -22 57 -40 132 -81 332 -234 828 -377 1222 -35 96 -369
928 -741 1847 l-678 1673 -392 0 c-379 0 -393 -1 -393 -19z m1396 -1626 c354
-874 644 -1599 644 -1611 0 -12 5 -24 10 -26 15 -5 116 -275 225 -603 105
-312 161 -500 241 -810 35 -138 60 -214 71 -222 23 -18 47 -16 73 5 20 16 23
33 36 192 38 484 104 964 219 1600 31 168 174 926 318 1685 l262 1380 287 3
288 2 -7 -32 c-4 -18 -248 -1293 -543 -2833 l-536 -2800 -313 0 -313 0 -675
1680 c-370 924 -716 1793 -767 1930 -149 398 -253 727 -349 1102 -25 95 -50
180 -57 188 -18 21 -66 19 -90 -5 -11 -11 -20 -23 -20 -28 0 -20 -54 -429 -81
-612 -86 -585 -121 -779 -749 -4081 -17 -85 -30 -166 -30 -179 0 -47 -14 -49
-331 -50 l-297 0 9 43 c5 23 247 1296 538 2829 l529 2787 34 30 33 31 348 -3
348 -2 645 -1590z m-1480 1481 c3 -7 -33 -215 -80 -462 -47 -247 -137 -723
-201 -1059 -64 -335 -156 -824 -206 -1085 -49 -261 -142 -747 -205 -1080 -139
-730 -280 -1477 -329 -1734 -33 -173 -34 -191 -20 -212 l15 -24 276 -2 275 -3
-68 -55 -68 -55 -322 -3 c-178 -2 -323 -1 -323 3 0 5 1062 5611 1076 5677 5
26 15 33 124 89 43 22 49 23 56 5z"/>
<path d="M1122 4240 c0 -19 2 -27 5 -17 2 9 2 25 0 35 -3 9 -5 1 -5 -18z"/>
</g>
</svg>
