<?xml version="1.0" standalone="no"?>
<!DOCTYPE svg PUBLIC "-//W3C//DTD SVG 20010904//EN"
 "http://www.w3.org/TR/2001/REC-SVG-20010904/DTD/svg10.dtd">
<svg version="1.0" xmlns="http://www.w3.org/2000/svg"
 width="559.000000pt" height="897.000000pt" viewBox="0 0 559.000000 897.000000"
 preserveAspectRatio="xMidYMid meet">

<g transform="translate(0.000000,897.000000) scale(0.100000,-0.100000)"
fill="#000000" stroke="none">
<path d="M1413 7398 l-18 -103 -148 -3 c-83 -1 -147 -7 -147 -12 0 -10 -1088
-5741 -1097 -5778 l-5 -22 359 0 359 0 20 103 19 102 124 5 125 5 278 1460
c307 1612 364 1921 437 2355 49 286 127 819 151 1028 8 68 16 102 25 102 7 0
28 -64 55 -167 100 -395 221 -771 384 -1198 52 -137 396 -999 764 -1915 l668
-1665 355 -3 355 -2 553 2892 c304 1591 554 2899 556 2906 4 10 -66 12 -338
10 l-342 -3 -292 -1535 c-354 -1864 -424 -2268 -482 -2785 -19 -169 -51 -523
-51 -566 0 -53 -21 -5 -55 129 -113 440 -276 953 -428 1352 -41 107 -366 913
-722 1790 -356 877 -650 1601 -652 1608 -4 9 -93 12 -398 12 l-393 0 -19 -102z
m1429 -1573 c361 -891 692 -1712 734 -1825 149 -402 287 -841 388 -1235 56
-216 55 -213 77 -220 29 -10 67 2 78 24 6 10 17 103 26 207 33 409 86 811 170
1309 35 207 610 3255 630 3343 l5 22 285 0 c265 0 285 -1 285 -17 0 -10 -245
-1294 -543 -2853 l-543 -2835 -315 -3 -315 -2 -687 1712 c-378 942 -707 1765
-731 1829 -157 410 -279 789 -380 1178 -30 118 -60 219 -65 224 -16 16 -69 12
-90 -7 -14 -13 -22 -42 -31 -119 -40 -347 -129 -920 -226 -1467 -38 -211 -590
-3128 -625 -3297 l-10 -53 -95 0 c-63 0 -94 4 -94 11 0 12 1037 5476 1047
5517 l5 22 -186 0 c-156 0 -186 2 -186 15 0 15 18 111 25 133 4 10 80 12 357
10 l352 -3 658 -1620z m-1467 1393 c-11 -50 -1045 -5506 -1045 -5517 0 -8 55
-11 185 -11 142 0 185 -3 185 -12 -1 -21 -27 -139 -32 -144 -3 -2 -140 -3
-304 -2 l-300 3 393 2065 c215 1136 458 2414 538 2840 81 426 148 781 150 788
3 9 36 12 120 12 115 0 115 0 110 -22z m368 -50 c-8 -40 -243 -1276 -522
-2745 -279 -1470 -510 -2675 -513 -2678 -3 -3 -75 -4 -160 -3 l-154 3 522
2745 c287 1510 523 2746 523 2748 1 1 72 2 160 2 l158 0 -14 -72z"/>
</g>
</svg>
